Coordinates
version=1
nRows=14
nColumns=36
inDegrees=yes

Units are S.I. units (second, meters, Newtons, ...)
If the header above contains a line with 'inDegrees', this indicates whether rotational values are in degrees (yes) or radians (no).

endheader
time	pelvis_tilt	pelvis_list	pelvis_rotation	pelvis_tx	pelvis_ty	pelvis_tz	hip_flexion_r	hip_adduction_r	hip_rotation_r	knee_angle_r	knee_angle_r_beta	ankle_angle_r	subtalar_angle_r	mtp_angle_r	hip_flexion_l	hip_adduction_l	hip_rotation_l	knee_angle_l	knee_angle_l_beta	ankle_angle_l	subtalar_angle_l	mtp_angle_l	lumbar_extension	lumbar_bending	lumbar_rotation	arm_flex_r	arm_add_r	arm_rot_r	elbow_flex_r	pro_sup_r	arm_flex_l	arm_add_l	arm_rot_l	elbow_flex_l	pro_sup_l
      2.43333330	    -15.39748755	      0.56108221	      3.43895548	      0.50207686	      0.85699210	     -0.14486107	     47.94615168	     -2.39901792	      1.89087235	     52.24044551	      0.91176778	     29.92185141	     -0.20665231	     -7.49999987	     49.78664116	     -1.84614682	     -1.68187064	     52.90719122	      0.92340468	     18.93956338	      2.24371514	     -7.49999987	    -21.27908842	     -1.50014518	     -2.86596265	    -29.35690940	     -9.89359266	    -41.53661644	     22.22228536	     67.27792310	    -27.72933002	     -0.57544060	    -58.65041673	     47.13018709	     69.87840651
      2.45000000	    -14.77778652	      0.78486005	      3.99584161	      0.50441508	      0.83717121	     -0.14304242	     51.66704640	     -2.48082115	      2.61791166	     62.21003488	      1.08576994	     36.18056572	     -1.16031744	     -7.49999987	     52.43239615	     -1.46859243	     -1.38779609	     61.09871647	      1.06637377	     26.10020416	      2.04746463	     -7.49999987	    -22.59970681	     -1.19957544	     -3.34585493	    -23.12369563	     -9.95922904	    -35.94242480	     18.85555664	     70.00439847	    -21.94448821	     -3.91362731	    -45.60117087	     39.34776689	     72.58018657
      2.46666670	    -11.98914612	      1.11291474	      4.48694228	      0.51089111	      0.82367887	     -0.14686414	     52.05385866	     -2.73074553	      2.86727570	     69.41170642	      1.21146282	     40.14803122	     -1.38571003	     -7.49999987	     52.73769108	     -1.04535006	     -0.92536898	     67.92734021	      1.18555574	     30.19889605	      1.81596218	     -7.49999987	    -26.48770155	     -1.05969667	     -4.16101240	    -15.15085074	     -9.99930315	    -23.84560050	     16.53325474	     72.73784435	    -14.14443876	     -5.93004114	    -34.63911998	     32.91935311	     69.78097449
      2.48333330	     -8.44003535	      1.73018975	      4.40909407	      0.51412599	      0.82011557	     -0.15012599	     49.65959964	     -2.81640187	      3.51284504	     73.09355330	      1.27572317	     41.95821720	     -2.02626289	     -7.49999987	     50.44066416	     -0.45055123	     -0.84359995	     71.57149885	      1.24915831	     32.24836049	      1.20807007	     -7.49999987	    -32.08736141	     -1.02947531	     -4.38722394	     -5.69729028	     -9.26679184	    -14.12789989	     15.20864324	     73.22389946	     -4.07330035	     -7.00281823	    -22.89713853	     27.80390268	     66.30261542
      2.50000000	     -4.65483296	      2.22263088	      4.21905378	      0.51547868	      0.81571160	     -0.14850530	     46.11311415	     -2.73449640	      3.79408713	     74.46384232	      1.29963922	     43.57143690	     -2.31913690	     -7.49999987	     46.93974868	     -0.12105836	     -0.84758229	     73.24809807	      1.27842048	     34.00497621	      0.76158169	     -7.49999987	    -38.48699306	     -0.93371768	     -3.67095717	      3.47369934	     -7.98213474	     -7.28914054	     15.01836650	     74.92575163	      6.18441767	     -7.23481824	    -12.56254792	     25.29663103	     68.34949456
      2.51666670	     -3.09016384	      2.49397707	      3.96437379	      0.53033400	      0.80241020	     -0.14632637	     44.54766296	     -2.36249131	      4.17393569	     76.34897835	      1.33254105	     45.31105027	     -2.10482042	     -7.49999987	     45.36864983	     -0.19549928	     -0.87607852	     74.92215631	      1.30763831	     36.23709284	      1.67774958	     -7.49999987	    -41.14980054	     -1.09758287	     -2.92856724	     13.27670170	     -6.97586152	     -1.36281719	     20.40619815	     76.06151185	     15.33890759	     -8.57929020	     -1.60385636	     30.03187301	     71.30995226
      2.53333330	     -2.80421077	      2.64444802	      3.42591614	      0.53596957	      0.80332204	     -0.14605698	     44.02371404	     -1.93072742	      4.69489719	     77.13479207	      1.34625609	     46.19158047	     -2.19823859	     -7.49999987	     44.78252019	     -0.44003672	     -1.28109592	     75.73697247	      1.32185954	     37.49841075	      2.35684896	     -7.49999987	    -41.62850076	     -1.44017432	     -1.46915817	     23.50227283	     -7.31555682	      2.63604067	     28.32133935	     79.25190855	     27.46066812	    -10.52304749	      8.47340714	     38.13265738	     77.82793776
      2.55000000	     -3.72850129	      2.81493585	      3.22615808	      0.54115439	      0.80390161	     -0.14477200	     44.56803365	     -1.82028506	      5.00976518	     77.44454737	      1.35166234	     46.56506647	     -1.82579367	     -7.49999987	     44.88395241	     -0.84345971	     -1.84379689	     75.35728855	      1.31523280	     38.37815418	      3.51082036	     -7.49999987	    -39.39669170	     -2.53242692	     -0.83633486	     34.87778806	     -7.94119435	      4.11608959	     43.31664194	     85.57715173	     40.29217612	    -13.15480506	     13.94443193	     50.26668254	     89.49122571
      2.56666670	     -5.52618473	      3.09366244	      3.09202431	      0.53852843	      0.80488225	     -0.14616530	     45.84484663	     -2.15533598	      5.20949384	     76.69385381	      1.33856026	     46.38676008	     -1.37019819	     -7.49999987	     45.97171135	     -0.79457438	     -2.42883295	     74.32005946	      1.29712974	     38.58282207	      4.26509227	     -7.49999987	    -35.39532996	     -3.80590092	     -0.86268216	     47.44251305	     -9.23992004	      5.94497917	     57.17117928	     86.10060785	     56.48598627	    -15.37113673	     20.78042259	     59.58181158	     89.42588675
      2.58333330	     -6.63917105	      3.39133627	      3.10075923	      0.52479934	      0.82712972	     -0.15581298	     46.59532555	     -3.23504733	      5.11464678	     74.30755701	      1.29691153	     44.00485676	     -1.14189339	     -7.49999987	     46.32413643	      0.13821529	     -2.84933917	     71.75469667	      1.25235571	     35.88530586	      2.78241794	     -7.49999987	    -32.80284141	     -4.09142359	     -0.99944216	     58.84792734	     -9.79655267	      6.35882275	     60.79792119	     82.42854678	     67.43995251	    -13.70043999	     27.15875118	     65.55799513	     85.43873282
      2.60000000	     -7.97238199	      3.02964544	      3.03909445	      0.54240956	      0.83149337	     -0.16096661	     46.71168143	     -4.03148797	      4.25932757	     71.78375515	      1.25286288	     41.62825161	     -0.55596762	     -7.49999987	     46.06006047	      0.33721081	     -2.69021607	     69.04710086	      1.20509925	     33.89042057	      2.40386613	     -7.49999987	    -27.85751235	     -3.88432858	     -1.15693192	     70.43111292	    -11.01846332	      8.11073563	     64.56592758	     86.43560627	     76.15779484	    -12.27678372	     26.58117119	     70.92035108	     85.60790340
      2.61666670	     -9.37771514	      2.63363725	      2.92368475	      0.55033475	      0.84542992	     -0.15754929	     46.44839238	     -4.35693807	      3.04162569	     68.41434027	      1.19405549	     38.87922558	     -0.69736020	     -7.49999987	     45.54200871	      0.00525027	     -2.83317535	     65.73251430	      1.14724880	     31.44329569	      2.61286641	     -7.49999987	    -22.74540566	     -3.86383804	     -0.23503318	     82.43230723	     -9.16181890	     14.06712284	     67.51317247	     85.92356835	     83.17522258	    -13.73246022	     23.84438494	     77.97288301	     83.87653645
      2.63333330	    -10.29465931	      2.13149455	      2.69949347	      0.56475675	      0.87302321	     -0.15987715	     43.97631247	     -4.42582045	      1.79639355	     63.03765618	      1.10021465	     35.31512552	     -0.57803716	     -7.49999987	     43.01182948	     -0.21202806	     -2.60658819	     60.56804642	      1.05711183	     28.25475744	      2.69409851	     -7.49999987	    -16.80759845	     -3.71889266	     -1.21183397	     84.95421235	    -10.65681770	     15.38444733	     75.36872594	     86.13019661	     89.38698514	    -19.31109910	     21.46752498	     84.69241169	     83.35161815
      2.65000000	    -10.70038941	      1.72425274	      2.23936952	      0.57598692	      0.89806573	     -0.15853808	     40.55117313	     -4.40391482	      0.08571955	     56.77674873	      0.99094120	     31.17032583	     -0.00242298	     -7.49999987	     39.73338375	     -0.63281912	     -2.89424765	     54.69670418	      0.95463758	     24.54106609	      2.66308432	     -7.49999987	    -11.96941537	     -3.40650429	     -1.86968297	     90.22209653	    -14.00087448	     16.44950183	     79.62784589	     86.50544896	     98.66574512	    -24.11768870	     25.43651332	     83.15103283	     84.14163690
